<svg xmlns="http://www.w3.org/2000/svg" viewBox="0 0 356.14405 1033.79722"><defs><style>.cls-1{fill:#1de9b6;}.cls-2{fill:#a7ffeb;}.cls-3{fill:#64ffda;}.cls-4{fill:#63ffd9;}.cls-5{fill:#62fed9;}.cls-6{fill:#61fed8;}.cls-7{fill:#60fed8;}.cls-8{fill:#5ffdd7;}.cls-9{fill:#5efdd7;}.cls-10{fill:#5dfdd6;}.cls-11{fill:#5cfdd6;}.cls-12{fill:#5bfcd5;}.cls-13{fill:#5afcd5;}.cls-14{fill:#59fcd4;}.cls-15{fill:#58fbd4;}.cls-16{fill:#57fbd3;}.cls-17{fill:#56fbd3;}.cls-18{fill:#55fad2;}.cls-19{fill:#54fad2;}.cls-20{fill:#53fad1;}.cls-21{fill:#52f9d1;}.cls-22{fill:#51f9d0;}.cls-23{fill:#50f9d0;}.cls-24{fill:#4ff9cf;}.cls-25{fill:#4ef8cf;}.cls-26{fill:#4df8ce;}.cls-27{fill:#4cf8ce;}.cls-28{fill:#4bf7cd;}.cls-29{fill:#4af7cd;}.cls-30{fill:#49f7cc;}.cls-31{fill:#48f6cc;}.cls-32{fill:#47f6cb;}.cls-33{fill:#46f6cb;}.cls-34{fill:#45f6ca;}.cls-35{fill:#44f5ca;}.cls-36{fill:#43f5c9;}.cls-37{fill:#42f5c9;}.cls-38{fill:#41f4c8;}.cls-39{fill:#40f4c8;}.cls-40{fill:#3ff3c7;}.cls-41{fill:#3ef3c7;}.cls-42{fill:#3df3c6;}.cls-43{fill:#3cf2c6;}.cls-44{fill:#3bf2c5;}.cls-45{fill:#3af2c5;}.cls-46{fill:#39f2c4;}.cls-47{fill:#38f1c4;}.cls-48{fill:#37f1c3;}.cls-49{fill:#36f1c3;}.cls-50{fill:#35f0c2;}.cls-51{fill:#34f0c2;}.cls-52{fill:#33f0c1;}.cls-53{fill:#32efc1;}.cls-54{fill:#31efc0;}.cls-55{fill:#30efc0;}.cls-56{fill:#2fefbf;}.cls-57{fill:#2eeebf;}.cls-58{fill:#2deebe;}.cls-59{fill:#2ceebe;}.cls-60{fill:#2bedbd;}.cls-61{fill:#2aedbd;}.cls-62{fill:#29edbc;}.cls-63{fill:#28ecbc;}.cls-64{fill:#27ecbb;}.cls-65{fill:#26ecbb;}.cls-66{fill:#25ebba;}.cls-67{fill:#24ebba;}.cls-68{fill:#23ebb9;}.cls-69{fill:#22ebb9;}.cls-70{fill:#21eab8;}.cls-71{fill:#20eab8;}.cls-72{fill:#1feab7;}.cls-73{fill:#1ee9b7;}</style></defs><title>Shape</title><g id="Layer_5" data-name="Layer 5"><path class="cls-1" d="M1976,202c-35.58057,13.01172-122.46167,50.64873-176,142-18.27808,31.18759-57.80762,98.636-37,166,22.40332,72.53,90.42224,66.19226,103,121,18.48376,80.54309-121.27258,125.32941-181,295-14.57837,41.41345-45.08362,128.07117-6,179,42.77136,55.73425,160.22449,57.39563,292-3" transform="translate(-1659.85595 -157)"/><path class="cls-2" d="M1977,157c-119.754,58.5961-174.165,133.55753-198,174-15.3623,26.06631-23.04346,39.09946-25,57-11.29065,103.296,153.05225,165.47382,139,251-3.93481,23.94849-18.83191,31.31476-53,66-31.31946,31.79352-194.759,197.707-163,337,17.63757,77.3573,88.96484,117.93567,100,124,111.7616,61.418,232.66211-10.11121,239-14" transform="translate(-1659.85595 -157)"/></g><g id="Layer_4" data-name="Layer 4"><circle class="cls-3" cx="100.14405" cy="54" r="25"/><circle class="cls-4" cx="100.60933" cy="54.57639" r="25.29861"/><circle class="cls-5" cx="101.07461" cy="55.15278" r="25.59722"/><circle class="cls-6" cx="101.53989" cy="55.72917" r="25.89583"/><circle class="cls-7" cx="102.00517" cy="56.30556" r="26.19444"/><circle class="cls-8" cx="102.47044" cy="56.88194" r="26.49306"/><circle class="cls-9" cx="102.93572" cy="57.45833" r="26.79167"/><circle class="cls-10" cx="103.401" cy="58.03472" r="27.09028"/><circle class="cls-11" cx="103.86628" cy="58.61111" r="27.38889"/><circle class="cls-12" cx="104.33155" cy="59.1875" r="27.6875"/><circle class="cls-13" cx="104.79683" cy="59.76389" r="27.98611"/><circle class="cls-14" cx="105.26211" cy="60.34028" r="28.28472"/><circle class="cls-15" cx="105.72739" cy="60.91667" r="28.58333"/><circle class="cls-16" cx="106.19267" cy="61.49306" r="28.88194"/><circle class="cls-17" cx="106.65794" cy="62.06944" r="29.18056"/><circle class="cls-18" cx="107.12322" cy="62.64583" r="29.47917"/><circle class="cls-19" cx="107.5885" cy="63.22222" r="29.77778"/><circle class="cls-20" cx="108.05378" cy="63.79861" r="30.07639"/><circle class="cls-21" cx="108.51905" cy="64.375" r="30.375"/><circle class="cls-22" cx="108.98433" cy="64.95139" r="30.67361"/><circle class="cls-23" cx="109.44961" cy="65.52778" r="30.97222"/><circle class="cls-24" cx="109.91489" cy="66.10417" r="31.27083"/><circle class="cls-25" cx="110.38017" cy="66.68056" r="31.56944"/><circle class="cls-26" cx="110.84544" cy="67.25694" r="31.86806"/><circle class="cls-27" cx="111.31072" cy="67.83333" r="32.16667"/><circle class="cls-28" cx="111.776" cy="68.40972" r="32.46528"/><circle class="cls-29" cx="112.24128" cy="68.98611" r="32.76389"/><circle class="cls-30" cx="112.70655" cy="69.5625" r="33.0625"/><circle class="cls-31" cx="113.17183" cy="70.13889" r="33.36111"/><circle class="cls-32" cx="113.63711" cy="70.71528" r="33.65972"/><circle class="cls-33" cx="114.10239" cy="71.29167" r="33.95833"/><circle class="cls-34" cx="114.56767" cy="71.86806" r="34.25694"/><circle class="cls-35" cx="115.03294" cy="72.44444" r="34.55556"/><circle class="cls-36" cx="115.49822" cy="73.02083" r="34.85417"/><circle class="cls-37" cx="115.9635" cy="73.59722" r="35.15278"/><circle class="cls-38" cx="116.42878" cy="74.17361" r="35.45139"/><circle class="cls-38" cx="116.89405" cy="74.75" r="35.75"/><circle class="cls-39" cx="117.35933" cy="75.32639" r="36.04861"/><circle class="cls-40" cx="117.82461" cy="75.90278" r="36.34722"/><circle class="cls-41" cx="118.28989" cy="76.47917" r="36.64583"/><circle class="cls-42" cx="118.75517" cy="77.05556" r="36.94444"/><circle class="cls-43" cx="119.22044" cy="77.63194" r="37.24306"/><circle class="cls-44" cx="119.68572" cy="78.20833" r="37.54167"/><circle class="cls-45" cx="120.151" cy="78.78472" r="37.84028"/><circle class="cls-46" cx="120.61628" cy="79.36111" r="38.13889"/><circle class="cls-47" cx="121.08155" cy="79.9375" r="38.4375"/><circle class="cls-48" cx="121.54683" cy="80.51389" r="38.73611"/><circle class="cls-49" cx="122.01211" cy="81.09028" r="39.03472"/><circle class="cls-50" cx="122.47739" cy="81.66667" r="39.33333"/><circle class="cls-51" cx="122.94267" cy="82.24306" r="39.63194"/><circle class="cls-52" cx="123.40794" cy="82.81944" r="39.93056"/><circle class="cls-53" cx="123.87322" cy="83.39583" r="40.22917"/><circle class="cls-54" cx="124.3385" cy="83.97222" r="40.52778"/><circle class="cls-55" cx="124.80378" cy="84.54861" r="40.82639"/><circle class="cls-56" cx="125.26905" cy="85.125" r="41.125"/><circle class="cls-57" cx="125.73433" cy="85.70139" r="41.42361"/><circle class="cls-58" cx="126.19961" cy="86.27778" r="41.72222"/><circle class="cls-59" cx="126.66489" cy="86.85417" r="42.02083"/><circle class="cls-60" cx="127.13017" cy="87.43056" r="42.31944"/><circle class="cls-61" cx="127.59544" cy="88.00694" r="42.61806"/><circle class="cls-62" cx="128.06072" cy="88.58333" r="42.91667"/><circle class="cls-63" cx="128.526" cy="89.15972" r="43.21528"/><circle class="cls-64" cx="128.99128" cy="89.73611" r="43.51389"/><circle class="cls-65" cx="129.45655" cy="90.3125" r="43.8125"/><circle class="cls-66" cx="129.92183" cy="90.88889" r="44.11111"/><circle class="cls-67" cx="130.38711" cy="91.46528" r="44.40972"/><circle class="cls-68" cx="130.85239" cy="92.04167" r="44.70833"/><circle class="cls-69" cx="131.31767" cy="92.61806" r="45.00694"/><circle class="cls-70" cx="131.78294" cy="93.19444" r="45.30556"/><circle class="cls-71" cx="132.24822" cy="93.77083" r="45.60417"/><circle class="cls-72" cx="132.7135" cy="94.34722" r="45.90278"/><circle class="cls-73" cx="133.17878" cy="94.92361" r="46.20139"/><circle class="cls-1" cx="133.64405" cy="95.5" r="46.5"/></g></svg>